<svg width="1380" height="1214" viewBox="0 0 1380 1214" fill="none" xmlns="http://www.w3.org/2000/svg">
<circle cx="49" cy="49" r="49" transform="matrix(1 0 0 -1 55 98.5332)" fill="#CEEFC8"/>
<circle cx="49" cy="49" r="49" transform="matrix(1 0 0 -1 922 495.533)" fill="#F56363" fill-opacity="0.1"/>
<circle cx="37" cy="37" r="37" transform="matrix(1 0 0 -1 1323 607.533)" fill="#F3A7FF" fill-opacity="0.53"/>
<circle cx="22" cy="22" r="22" transform="matrix(1 0 0 -1 286 280.533)" fill="#3FBAFF" fill-opacity="0.1"/>
<circle cx="22" cy="22" r="22" transform="matrix(1 0 0 -1 1279 1213.53)" fill="#C4C4C4" fill-opacity="0.1"/>
<circle cx="32.784" cy="32.784" r="32.784" transform="matrix(1 0 0 -1 0.216064 685.317)" fill="#FF8A00" fill-opacity="0.51"/>
<circle opacity="0.2" cx="22" cy="22" r="22" transform="matrix(1 0 0 -1 215 1144.53)" fill="#FF8A00"/>
</svg>
